<?xml version="1.0" encoding="utf-8"?>
<!-- Generator: Adobe Illustrator 21.1.0, SVG Export Plug-In . SVG Version: 6.00 Build 0)  -->
<svg version="1.1" id="Layer_1" xmlns="http://www.w3.org/2000/svg" xmlns:xlink="http://www.w3.org/1999/xlink" x="0px" y="0px"
	 viewBox="0 0 24 24" style="enable-background:new 0 0 24 24;" xml:space="preserve">
<style type="text/css">
	.st0{fill-rule:evenodd;clip-rule:evenodd;fill:#EEEDED;}
	.st1{fill:#E83E3F;}
	.st2{fill-rule:evenodd;clip-rule:evenodd;fill:url(#SVGID_1_);}
	.st3{fill:#FFFFFF;}
	.st4{fill:#DAD9DC;}
	.st5{fill:#B9B7BA;}
	.st6{fill-rule:evenodd;clip-rule:evenodd;fill:url(#SVGID_2_);}
	.st7{fill-rule:evenodd;clip-rule:evenodd;fill:url(#SVGID_3_);}
	.st8{fill-rule:evenodd;clip-rule:evenodd;fill:url(#SVGID_4_);}
	.st9{fill-rule:evenodd;clip-rule:evenodd;fill:url(#SVGID_5_);}
	.st10{fill-rule:evenodd;clip-rule:evenodd;fill:url(#SVGID_6_);}
	.st11{fill-rule:evenodd;clip-rule:evenodd;fill:#626160;}
	.st12{fill-rule:evenodd;clip-rule:evenodd;fill:#CACACA;}
	.st13{fill-rule:evenodd;clip-rule:evenodd;fill:url(#SVGID_7_);}
	.st14{fill-rule:evenodd;clip-rule:evenodd;fill:url(#SVGID_8_);}
	.st15{fill:#FACEC2;}
</style>
<path class="st0" d="M0,0h24v24H0V0z"/>
<g>
	<rect x="0" class="st1" width="24" height="9"/>
</g>
<path class="st15" d="M15.5,5h-7C8.224,5,8,4.776,8,4.5v0C8,4.224,8.224,4,8.5,4h7C15.776,4,16,4.224,16,4.5v0
	C16,4.776,15.776,5,15.5,5z"/>
<g>
	<g>
		<path d="M11.594,17.569h-1.406c-0.184,0-0.394,0.01-0.629,0.03c-0.236,0.02-0.449,0.042-0.641,0.066
			c0.312-0.32,0.613-0.645,0.905-0.977c0.292-0.332,0.551-0.663,0.779-0.995c0.228-0.332,0.409-0.663,0.545-0.995
			c0.136-0.331,0.204-0.657,0.204-0.977c0-0.367-0.06-0.699-0.18-0.995c-0.12-0.296-0.292-0.549-0.515-0.761
			c-0.224-0.212-0.49-0.375-0.797-0.491C9.551,11.358,9.21,11.3,8.834,11.3c-0.544,0-1.011,0.102-1.402,0.306
			c-0.361,0.188-0.715,0.458-1.062,0.812C6.32,12.469,6.321,12.55,6.371,12.6l0.775,0.766c0.051,0.05,0.133,0.049,0.182-0.002
			c0.165-0.169,0.34-0.32,0.522-0.452c0.216-0.156,0.463-0.234,0.743-0.234c0.336,0,0.599,0.098,0.791,0.294
			c0.192,0.196,0.288,0.481,0.288,0.857c0,0.272-0.082,0.557-0.246,0.857c-0.164,0.3-0.392,0.623-0.683,0.971
			c-0.292,0.348-0.639,0.719-1.043,1.115c-0.392,0.385-0.824,0.797-1.296,1.238c-0.026,0.024-0.041,0.058-0.041,0.094v0.822
			c0,0.071,0.058,0.129,0.129,0.129h5.101c0.071,0,0.129-0.058,0.129-0.129v-1.229C11.723,17.627,11.666,17.569,11.594,17.569z
			 M17.947,11.444h-5.041c-0.071,0-0.129,0.058-0.129,0.129v1.229c0,0.071,0.058,0.129,0.129,0.129h3.287
			c-0.36,0.496-0.661,0.975-0.905,1.438c-0.244,0.464-0.443,0.937-0.599,1.42c-0.156,0.484-0.276,0.991-0.36,1.522
			c-0.084,0.532-0.142,1.113-0.174,1.744h1.651c0.069,0,0.125-0.054,0.129-0.123c0.032-0.693,0.078-1.309,0.138-1.849
			c0.064-0.571,0.17-1.107,0.318-1.606c0.148-0.499,0.355-0.983,0.623-1.45c0.262-0.457,0.606-0.947,1.032-1.469
			c0.019-0.023,0.029-0.052,0.029-0.081v-0.904C18.076,11.502,18.018,11.444,17.947,11.444z"/>
	</g>
</g>
</svg>
